<svg width="31" height="31" viewBox="0 0 31 31" fill="none" xmlns="http://www.w3.org/2000/svg">
<path d="M23 16.7475H16.75V22.9975C16.75 23.329 16.6183 23.647 16.3839 23.8814C16.1495 24.1158 15.8315 24.2475 15.5 24.2475C15.1685 24.2475 14.8505 24.1158 14.6161 23.8814C14.3817 23.647 14.25 23.329 14.25 22.9975V16.7475H8C7.66848 16.7475 7.35054 16.6158 7.11612 16.3814C6.8817 16.147 6.75 15.829 6.75 15.4975C6.75 15.166 6.8817 14.848 7.11612 14.6136C7.35054 14.3792 7.66848 14.2475 8 14.2475H14.25V7.9975C14.25 7.66598 14.3817 7.34803 14.6161 7.11361C14.8505 6.87919 15.1685 6.7475 15.5 6.7475C15.8315 6.7475 16.1495 6.87919 16.3839 7.11361C16.6183 7.34803 16.75 7.66598 16.75 7.9975V14.2475H23C23.3315 14.2475 23.6495 14.3792 23.8839 14.6136C24.1183 14.848 24.25 15.166 24.25 15.4975C24.25 15.829 24.1183 16.147 23.8839 16.3814C23.6495 16.6158 23.3315 16.7475 23 16.7475Z" fill="#F0EFFC"/>
</svg>
