<svg width="25" height="24" viewBox="0 0 25 24" fill="none" xmlns="http://www.w3.org/2000/svg">
<path d="M7.116 21C6.67133 21 6.291 20.8417 5.975 20.525C5.659 20.2083 5.50067 19.8287 5.5 19.386V10.616C5.5 10.172 5.65833 9.792 5.975 9.476C6.29167 9.16 6.67167 9.00133 7.115 9H8.5V7C8.5 5.886 8.88833 4.941 9.665 4.165C10.441 3.38833 11.386 3 12.5 3C13.614 3 14.5593 3.38833 15.336 4.165C16.1127 4.94167 16.5007 5.88667 16.5 7V9H17.885C18.329 9 18.709 9.15833 19.025 9.475C19.341 9.79167 19.4993 10.1717 19.5 10.615V19.385C19.5 19.829 19.3417 20.209 19.025 20.525C18.7083 20.841 18.3283 20.9993 17.885 21H7.116ZM12.5 16.5C12.922 16.5 13.2773 16.3553 13.566 16.066C13.8553 15.7773 14 15.422 14 15C14 14.578 13.8553 14.2227 13.566 13.934C13.2767 13.6453 12.9213 13.5007 12.5 13.5C12.0787 13.4993 11.7233 13.644 11.434 13.934C11.1447 14.2227 11 14.578 11 15C11 15.422 11.1447 15.7773 11.434 16.066C11.7227 16.3553 12.078 16.5 12.5 16.5ZM9.5 9H15.5V7C15.5 6.16667 15.2083 5.45833 14.625 4.875C14.0417 4.29167 13.3333 4 12.5 4C11.6667 4 10.9583 4.29167 10.375 4.875C9.79167 5.45833 9.5 6.16667 9.5 7V9Z" fill="#F0EFFC"/>
</svg>
